<svg id="Layer_1" data-name="Layer 1" xmlns="http://www.w3.org/2000/svg" viewBox="0 0 15.41 15.41"><defs><style>.cls-1{fill:#ea580c;}</style></defs><path class="cls-1" d="M2.21,2.91,4.74,5.44A4.83,4.83,0,0,1,.49,6.3,7.45,7.45,0,0,1,2.21,2.91Z" transform="translate(-0.29 -0.29)"/><path class="cls-1" d="M5.45,4.75,2.91,2.21A7.72,7.72,0,0,1,6.43.45,4.88,4.88,0,0,1,5.45,4.75Z" transform="translate(-0.29 -0.29)"/><path class="cls-1" d="M7.31,8l-5.1,5.09A7.67,7.67,0,0,1,.29,8c0-.26,0-.51,0-.77A6.23,6.23,0,0,0,5.41,6.1Z" transform="translate(-0.29 -0.29)"/><path class="cls-1" d="M6.12,5.42A5.88,5.88,0,0,0,7.42.32c.2,0,.38,0,.58,0a7.67,7.67,0,0,1,5.09,1.92L8,7.31Z" transform="translate(-0.29 -0.29)"/><path class="cls-1" d="M10.45,11.15l2.64,2.64A7.39,7.39,0,0,1,9.8,15.48,4.83,4.83,0,0,1,10.45,11.15Z" transform="translate(-0.29 -0.29)"/><path class="cls-1" d="M15.58,9.3a7.6,7.6,0,0,1-1.79,3.79L11.1,10.4A4.83,4.83,0,0,1,15.58,9.3Z" transform="translate(-0.29 -0.29)"/><path class="cls-1" d="M9.77,10.47a5.85,5.85,0,0,0-1,5.2c-.26,0-.52,0-.79,0a7.67,7.67,0,0,1-5.09-1.92L8,8.69Z" transform="translate(-0.29 -0.29)"/><path class="cls-1" d="M15.71,8a2.3,2.3,0,0,1,0,.37,6.12,6.12,0,0,0-5.25,1.38L8.69,8l5.1-5.09A7.67,7.67,0,0,1,15.71,8Z" transform="translate(-0.29 -0.29)"/></svg>